<?xml version="1.0" encoding="utf-8"?>
<!-- Generator: Adobe Illustrator 16.0.4, SVG Export Plug-In . SVG Version: 6.00 Build 0)  -->
<!DOCTYPE svg PUBLIC "-//W3C//DTD SVG 1.1//EN" "http://www.w3.org/Graphics/SVG/1.1/DTD/svg11.dtd">
<svg version="1.1" id="Layer_1" xmlns="http://www.w3.org/2000/svg" xmlns:xlink="http://www.w3.org/1999/xlink" x="0px" y="0px"
	 width="344px" height="382px" viewBox="0 0 344 382" enable-background="new 0 0 344 382" xml:space="preserve">
<g>
	<radialGradient id="SVGID_1_" cx="117.105" cy="284.6074" r="248.7439" gradientUnits="userSpaceOnUse">
		<stop  offset="0" style="stop-color:#A6CE39"/>
		<stop  offset="1" style="stop-color:#118949"/>
	</radialGradient>
	<path fill-rule="evenodd" clip-rule="evenodd" fill="url(#SVGID_1_)" d="M161.224,35.957c78.614,0,142.369,63.754,142.369,142.369
		c0,78.615-63.754,142.369-142.369,142.369c-78.616,0-142.369-63.754-142.369-142.369C18.855,99.711,82.608,35.957,161.224,35.957z"
		/>
	<path fill-rule="evenodd" clip-rule="evenodd" fill="#FFFFFF" d="M167.991,37.807c73.026,0,132.248,59.222,132.248,132.25
		c0,73.026-59.222,132.248-132.248,132.248c-73.027,0-132.249-59.222-132.249-132.248C35.742,97.029,94.963,37.807,167.991,37.807z"
		/>
	<defs>
		<filter id="Adobe_OpacityMaskFilter" filterUnits="userSpaceOnUse" x="20.072" y="57.034" width="263.143" height="279.08">
			<feColorMatrix  type="matrix" values="1 0 0 0 0  0 1 0 0 0  0 0 1 0 0  0 0 0 1 0"/>
		</filter>
	</defs>
	<mask maskUnits="userSpaceOnUse" x="20.072" y="57.034" width="263.143" height="279.08" id="SVGID_2_">
		<g filter="url(#Adobe_OpacityMaskFilter)">
			<path fill-rule="evenodd" clip-rule="evenodd" fill="#FFFFFF" d="M167.25,48.717c69.29,0,125.482,56.192,125.482,125.482
				S236.539,299.682,167.25,299.682c-69.291,0-125.482-56.192-125.482-125.482S97.958,48.717,167.25,48.717z"/>
		</g>
	</mask>
	<g opacity="0.15" mask="url(#SVGID_2_)">
		<path fill="#45489D" d="M270.433,247.205C171.19,281.79-3.903,207.794,102.858,58.93C80.303,69.456,23.83,99.845,20.823,199.088
			c3.007,67.665,22.555,85.71,22.555,85.71s58.644,58.644,135.331,49.621c46.614-6.015,51.125-24.059,66.162-34.585
			C259.908,289.309,303.369,235.729,270.433,247.205z"/>
		<path fill="#FFFFFF" d="M162.576,336.114c-0.003,0-0.006,0-0.009,0c-35.618-0.002-66.27-13.809-85.711-25.39
			c-21.057-12.544-33.882-25.269-34.009-25.396c-0.786-0.725-19.788-19.006-22.774-86.208
			c1.297-42.868,12.688-77.792,33.854-103.855c16.799-20.685,35.791-31.033,48.614-37.018l2.603-1.214l-1.674,2.334
			c-33.849,47.198-41.995,91.128-23.557,127.039c10.74,20.918,30.256,38.493,56.439,50.827
			c24.126,11.364,52.863,17.623,80.917,17.622c18.923,0,37.222-2.891,52.917-8.361c3.131-1.091,5.723-1.644,7.704-1.644
			c3.41,0,4.644,1.644,5.079,3.022c3.25,10.31-26.544,44.791-37.667,52.576c-3.706,2.594-6.776,5.664-10.026,8.914
			c-9.963,9.964-21.256,21.257-56.471,25.801C173.446,335.795,167.987,336.114,162.576,336.114z M100.579,60.845
			c-12.569,6.087-29.98,16.277-45.485,35.369c-20.955,25.802-32.232,60.421-33.52,102.896c2.953,66.39,22.121,84.956,22.314,85.136
			c0.146,0.146,12.866,12.76,33.774,25.209c19.271,11.474,49.645,25.153,84.904,25.155c0.003,0,0.006,0,0.009,0
			c5.354,0,10.752-0.315,16.045-0.938c34.698-4.477,45.798-15.577,55.592-25.371c3.298-3.298,6.414-6.413,10.227-9.082
			c11.654-8.158,39.882-42.049,37.095-50.892c-0.418-1.327-1.61-1.972-3.645-1.972c-1.812,0-4.238,0.524-7.209,1.561
			c-15.853,5.523-34.322,8.444-53.412,8.444c-28.271,0.001-57.235-6.309-81.558-17.766c-26.486-12.476-46.244-30.284-57.136-51.501
			C55.485,142.123,77.33,94.043,100.579,60.845z"/>
	</g>
	<g>
		<g>
			<circle fill="#FFFFFF" cx="235.085" cy="288.926" r="18.044"/>
			<path fill="#FFFFFF" d="M235.085,307.722c-10.364,0-18.796-8.432-18.796-18.796s8.432-18.796,18.796-18.796
				s18.796,8.432,18.796,18.796S245.449,307.722,235.085,307.722z M235.085,271.634c-9.535,0-17.292,7.757-17.292,17.292
				s7.757,17.293,17.292,17.293c9.535,0,17.292-7.758,17.292-17.293S244.62,271.634,235.085,271.634z"/>
		</g>
		<g>
			<circle fill="#FDFDFE" cx="296.736" cy="202.465" r="16.24"/>
			<path fill="#FFFFFF" d="M296.736,219.456c-9.369,0-16.992-7.622-16.992-16.991c0-9.37,7.623-16.992,16.992-16.992
				c9.37,0,16.992,7.622,16.992,16.992C313.728,211.834,306.105,219.456,296.736,219.456z M296.736,186.977
				c-8.54,0-15.488,6.948-15.488,15.488c0,8.539,6.948,15.487,15.488,15.487s15.488-6.948,15.488-15.487
				C312.224,193.925,305.276,186.977,296.736,186.977z"/>
		</g>
		<g>
			<circle fill="#FDFDFE" cx="279.526" cy="101.342" r="14.616"/>
			<path fill="#FFFFFF" d="M279.526,116.709c-8.474,0-15.367-6.894-15.367-15.367s6.894-15.367,15.367-15.367
				s15.368,6.894,15.368,15.367S288,116.709,279.526,116.709z M279.526,87.479c-7.645,0-13.864,6.219-13.864,13.864
				c0,7.644,6.219,13.863,13.864,13.863s13.864-6.219,13.864-13.863C293.391,93.698,287.171,87.479,279.526,87.479z"/>
		</g>
		<g>
			<circle fill="#FDFDFE" cx="216.143" cy="47.176" r="13.154"/>
			<path fill="#FFFFFF" d="M216.143,61.082c-7.668,0-13.906-6.238-13.906-13.906c0-7.667,6.238-13.906,13.906-13.906
				s13.906,6.238,13.906,13.906C230.049,54.844,223.811,61.082,216.143,61.082z M216.143,34.773
				c-6.838,0-12.402,5.563-12.402,12.402s5.563,12.402,12.402,12.402c6.839,0,12.402-5.563,12.402-12.402
				S222.981,34.773,216.143,34.773z"/>
		</g>
		<g>
			<circle fill="#FDFDFE" cx="133.587" cy="40.819" r="11.839"/>
			<path fill="#FFFFFF" d="M133.587,53.41c-6.943,0-12.591-5.648-12.591-12.59s5.648-12.591,12.591-12.591
				c6.942,0,12.591,5.648,12.591,12.591S140.529,53.41,133.587,53.41z M133.587,29.732c-6.114,0-11.087,4.974-11.087,11.087
				c0,6.113,4.974,11.086,11.087,11.086c6.113,0,11.087-4.974,11.087-11.086C144.674,34.706,139.7,29.732,133.587,29.732z"/>
		</g>
		<g>
			<circle fill="#FDFDFE" cx="57.651" cy="87.433" r="10.655"/>
			<path fill="#FFFFFF" d="M57.65,98.84c-6.29,0-11.406-5.117-11.406-11.407s5.117-11.407,11.406-11.407
				c6.29,0,11.407,5.117,11.407,11.407S63.94,98.84,57.65,98.84z M57.65,77.53c-5.46,0-9.902,4.442-9.902,9.903
				s4.442,9.903,9.902,9.903s9.903-4.442,9.903-9.903S63.111,77.53,57.65,77.53z"/>
		</g>
		<g opacity="0.5">
			<g>
				<line fill="#FFFFFF" x1="60.658" y1="88.185" x2="234.333" y2="290.43"/>
				
					<rect x="14.205" y="188.931" transform="matrix(0.6515 0.7587 -0.7587 0.6515 195.0241 -45.9231)" width="266.582" height="0.752"/>
			</g>
			
				<rect x="46.259" y="146.452" transform="matrix(0.8972 0.4415 -0.4415 0.8972 83.2321 -63.9802)" width="265.629" height="0.752"/>
			<rect x="60.397" y="95.327" transform="matrix(0.9976 0.0695 -0.0695 0.9976 7.0608 -11.4854)" width="216.301" height="0.752"/>
			
				<rect x="138.098" y="-10.303" transform="matrix(0.2546 0.967 -0.967 0.2546 170.3225 -82.1874)" width="0.752" height="159.384"/>
			<rect x="97.123" y="20.627" transform="matrix(0.5647 0.8253 -0.8253 0.5647 96.2937 -52.0602)" width="0.751" height="89.254"/>
			<rect x="132.592" y="43.451" transform="matrix(0.9942 0.1075 -0.1075 0.9942 5.7221 -18.5092)" width="83.94" height="0.751"/>
			
				<rect x="127.713" y="69.765" transform="matrix(0.9265 0.3763 -0.3763 0.9265 41.6489 -72.972)" width="159.859" height="0.752"/>
			
				<rect x="99.778" y="121.266" transform="matrix(0.7088 0.7054 -0.7054 0.7088 147.9284 -115.0326)" width="227.007" height="0.752"/>
			<rect x="47.53" y="166" transform="matrix(0.3862 0.9224 -0.9224 0.3862 265.6924 -66.5247)" width="270.605" height="0.752"/>
			
				<rect x="103.871" y="168.256" transform="matrix(0.0805 0.9968 -0.9968 0.0805 375.2622 -69.5206)" width="242.88" height="0.752"/>
			
				<rect x="168.033" y="126.153" transform="matrix(0.4608 0.8875 -0.8875 0.4608 250.3989 -159.0979)" width="176.207" height="0.752"/>
			
				<rect x="205.361" y="74.652" transform="matrix(0.7783 0.6279 -0.6279 0.7783 102.0705 -139.006)" width="85.011" height="0.752"/>
			
				<rect x="256.888" y="99.147" transform="matrix(0.9735 0.2286 -0.2286 0.9735 51.636 -53.6197)" width="0.752" height="193.855"/>
			
				<rect x="235.739" y="152.843" transform="matrix(0.1795 0.9838 -0.9838 0.1795 387.1024 -157.6964)" width="104.702" height="0.752"/>
			
				<rect x="265.91" y="193.813" transform="matrix(0.791 0.6118 -0.6118 0.791 206.188 -111.4867)" width="0.752" height="104.517"/>
			<g>
				<circle fill="#45489D" cx="235.085" cy="288.926" r="18.044"/>
				<path fill="#FFFFFF" d="M235.085,307.722c-10.364,0-18.796-8.432-18.796-18.796s8.432-18.796,18.796-18.796
					s18.796,8.432,18.796,18.796S245.449,307.722,235.085,307.722z M235.085,271.634c-9.535,0-17.292,7.757-17.292,17.292
					s7.757,17.293,17.292,17.293c9.535,0,17.292-7.758,17.292-17.293S244.62,271.634,235.085,271.634z"/>
			</g>
			<g>
				<circle fill="#45489D" cx="296.736" cy="202.465" r="16.24"/>
				<path fill="#FFFFFF" d="M296.736,219.456c-9.369,0-16.992-7.622-16.992-16.991c0-9.37,7.623-16.992,16.992-16.992
					c9.37,0,16.992,7.622,16.992,16.992C313.728,211.834,306.105,219.456,296.736,219.456z M296.736,186.977
					c-8.54,0-15.488,6.948-15.488,15.488c0,8.539,6.948,15.487,15.488,15.487s15.488-6.948,15.488-15.487
					C312.224,193.925,305.276,186.977,296.736,186.977z"/>
			</g>
			<g>
				<circle fill="#45489D" cx="279.526" cy="101.342" r="14.616"/>
				<path fill="#FFFFFF" d="M279.526,116.709c-8.474,0-15.367-6.894-15.367-15.367s6.894-15.367,15.367-15.367
					s15.368,6.894,15.368,15.367S288,116.709,279.526,116.709z M279.526,87.479c-7.645,0-13.864,6.219-13.864,13.864
					c0,7.644,6.219,13.863,13.864,13.863s13.864-6.219,13.864-13.863C293.391,93.698,287.171,87.479,279.526,87.479z"/>
			</g>
			<g>
				<circle fill="#45489D" cx="216.143" cy="47.176" r="13.154"/>
				<path fill="#FFFFFF" d="M216.143,61.082c-7.668,0-13.906-6.238-13.906-13.906c0-7.667,6.238-13.906,13.906-13.906
					s13.906,6.238,13.906,13.906C230.049,54.844,223.811,61.082,216.143,61.082z M216.143,34.773
					c-6.838,0-12.402,5.563-12.402,12.402s5.563,12.402,12.402,12.402c6.839,0,12.402-5.563,12.402-12.402
					S222.981,34.773,216.143,34.773z"/>
			</g>
			<g>
				<circle fill="#45489D" cx="133.587" cy="40.819" r="11.839"/>
				<path fill="#FFFFFF" d="M133.587,53.41c-6.943,0-12.591-5.648-12.591-12.59s5.648-12.591,12.591-12.591
					c6.942,0,12.591,5.648,12.591,12.591S140.529,53.41,133.587,53.41z M133.587,29.732c-6.114,0-11.087,4.974-11.087,11.087
					c0,6.113,4.974,11.086,11.087,11.086c6.113,0,11.087-4.974,11.087-11.086C144.674,34.706,139.7,29.732,133.587,29.732z"/>
			</g>
			<g>
				<circle fill="#45489D" cx="57.651" cy="87.433" r="10.655"/>
				<path fill="#FFFFFF" d="M57.65,98.84c-6.29,0-11.406-5.117-11.406-11.407s5.117-11.407,11.406-11.407
					c6.29,0,11.407,5.117,11.407,11.407S63.94,98.84,57.65,98.84z M57.65,77.53c-5.46,0-9.902,4.442-9.902,9.903
					s4.442,9.903,9.902,9.903s9.903-4.442,9.903-9.903S63.111,77.53,57.65,77.53z"/>
			</g>
		</g>
	</g>
	<g>
		<g>
			<path fill="#118949" d="M186.83,240.241c0.788,3.174-6.742,8.372-8.365,11.671c-1.623,3.3-7.577,6.462-12.424,11.259
				c-18.567,10.531-38.475,8.41-44.12,8.392c-9.653-1.144-15.509,0.044-17.207,0.218c11.812,4.585,23.183-0.09,28.596,6.78
				c3.772,15.813-27.429-4.211-27.429-4.211s29.042,16.588,29.988,18.717c5.325,1.557,12.332,0.196,17.208,8.716
				c3.112,6.666,7.823,6.196,9.477,7.831c1.654,1.635,13.62,13.012,3.316,21.683c-10.592,6.204-29.479-16.364-30.172-22.06
				c-1.351-5.363-0.776-9.914-1.845-14.458c-2.664-5.244-27.241-17.639-28.341-18.179c13.398,29.894,41.479,50.542,27.652,91.24
				c-2.598,5.167-6.296,0.86-6.296,0.86s-11.94-15.928-12.919-23.538c-0.98-7.612-0.715-27.896-4.014-45.243
				c-2.475-13.023-7.972-21.379-7.972-21.379s4.301,21.456,7.425,21.381c0.779,4.873,4.023,26.774,2.378,26.785
				c-13.499-2.764-16.483-12.609-16.666-15.405c1.688-10.204,6.41-9.027,8.375-10.026c1.967-0.998-2.496-21.961-2.496-21.961
				s0.06,9.316-1.584,9.327c-7.905-2.032-1.44-11.226-1.44-11.226s-12.853,4.191-18.965,8.395
				c-6.111,4.204-9.398,21.543-16.331,26.027c-9.266,8.28-30.641,7.867-34.502,4.055c-6.117-5.276-0.886-10.135-0.886-10.135
				s12.79-14.054,19.513-16.782c8.136-4.821,14.564-2.175,21.624-3.699c7.061-1.526,30.066-12.25,30.066-12.25
				s-34.745-16.987-40.953-19.194c-7.871-5.486-16.154-15.298-18.187-24.713c-2.032-9.413-5.155-17.724-5.155-17.724
				s3.949-8.189,25.426,8.115c12.514,11.376,14.375,19.638,14.375,19.638s7.103,13.984,9.369,17.096
				c2.268,3.107,15.708,13.874,15.708,13.874s-7.482-4.445-10.489-11.988c-1.069-1.565-3.806-1-5.555-3.09
				c-4.124-7.849-8.057-15.252-8.057-15.252s2.323-7.401,10.719-5.756c8.396,1.646,10.271,12.101,10.504,14.182
				c0.759,4.746-5.335,5.734-4.881,8.253c0.454,2.52,0.873,7.941,9.73,13.201c5.489-15.71,7.998-17.808,11.195-23.692
				c2.811-5.825-0.118-18.631,0.337-24.499c0.457-5.868,1.142-18.585,14.834-28.702c2.948-1.772,10.615-11.303,20.188-5.445
				c2.865,2.395-2.764,13.501-1.239,20.561c0.203,6.082-1.49,15.737-6.219,21.853c-5.807,8.859-13.732,12.472-20.167,17.667
				c-6.433,5.19-15.531,22.457-15.531,22.457s13.395-5.293,16.123-6.953c2.938-2.35,11.735-12.228,21.263-17.673
				c7.279-4.161,15.041-4.754,17.996-5.43C168.051,234.661,181.917,234.628,186.83,240.241z"/>
			<path fill="#FFFFFF" d="M141.309,185.447c1.968,0,4.069,0.533,6.273,1.881c2.865,2.395-2.764,13.501-1.239,20.561
				c0.203,6.082-1.49,15.737-6.219,21.853c-5.807,8.859-13.732,12.472-20.167,17.667c-6.433,5.19-15.531,22.457-15.531,22.457
				s13.395-5.293,16.123-6.953c2.938-2.35,11.735-12.228,21.263-17.673c7.279-4.161,15.041-4.754,17.996-5.43
				c4.045-2.526,9.445-3.82,14.476-3.821c5.221,0,10.043,1.395,12.545,4.253c0.788,3.174-6.742,8.372-8.365,11.671
				c-1.623,3.3-7.577,6.462-12.424,11.259c-13.195,7.484-27.067,8.578-36.017,8.578c-3.644,0-6.47-0.182-8.104-0.187
				c-3.066-0.363-5.75-0.491-8.039-0.491c-4.916,0-8.01,0.59-9.168,0.709c11.812,4.585,23.183-0.09,28.596,6.78
				c1.068,4.477-0.667,6.081-3.703,6.081c-4.108,0-10.599-2.938-15.754-5.675c-4.542-2.658-7.972-4.617-7.972-4.617
				s3.479,2.232,7.972,4.617c8.672,5.076,21.396,12.702,22.016,14.1c5.325,1.557,12.332,0.196,17.208,8.716
				c3.112,6.666,7.823,6.196,9.477,7.831c1.654,1.635,13.62,13.012,3.316,21.683c-1.261,0.738-2.641,1.069-4.092,1.069
				c-10.741,0-25.47-18.111-26.081-23.129c-1.351-5.363-0.776-9.914-1.845-14.458c-2.664-5.244-27.241-17.639-28.341-18.179
				c13.398,29.894,41.479,50.542,27.652,91.24c-0.974,1.938-2.103,2.543-3.133,2.543c-1.718,0-3.163-1.683-3.163-1.683
				s-11.94-15.928-12.919-23.538c-0.98-7.612-0.715-27.896-4.014-45.243c-2.475-13.023-7.972-21.379-7.972-21.379
				s4.286,21.381,7.409,21.381c0.005,0,0.011,0,0.017,0c0.779,4.873,4.023,26.774,2.378,26.785
				c-13.499-2.764-16.483-12.609-16.666-15.405c1.688-10.204,6.41-9.027,8.375-10.026c1.967-0.998-2.496-21.961-2.496-21.961
				s0.06,9.316-1.584,9.327c-7.905-2.032-1.44-11.226-1.44-11.226s-12.853,4.191-18.965,8.395
				c-6.111,4.204-9.398,21.543-16.331,26.027c-5.355,4.785-14.755,6.667-22.481,6.667c-5.643,0-10.392-1.004-12.021-2.612
				c-6.117-5.276-0.886-10.135-0.886-10.135s12.79-14.054,19.513-16.782c8.136-4.821,14.564-2.175,21.624-3.699
				c7.061-1.526,30.066-12.25,30.066-12.25s-34.745-16.987-40.953-19.194c-7.871-5.486-16.154-15.298-18.187-24.713
				c-2.032-9.413-5.155-17.724-5.155-17.724s0.993-2.057,4.684-2.057c3.676,0,10.027,2.037,20.742,10.172
				c12.514,11.376,14.375,19.638,14.375,19.638s7.103,13.984,9.369,17.096c1.294,1.773,6.228,6.041,10.224,9.379
				c2.8,2.9,5.484,4.495,5.484,4.495s-2.477-1.984-5.484-4.495c-1.874-1.941-3.799-4.469-5.005-7.493
				c-1.069-1.565-3.806-1-5.555-3.09c-4.124-7.849-8.057-15.252-8.057-15.252s1.882-5.994,8.377-5.994
				c0.723,0,1.501,0.074,2.342,0.238c8.396,1.646,10.271,12.101,10.504,14.182c0.759,4.746-5.335,5.734-4.881,8.253
				c0.454,2.52,0.873,7.941,9.73,13.201c5.489-15.71,7.998-17.808,11.195-23.692c2.811-5.825-0.118-18.631,0.337-24.499
				c0.457-5.868,1.142-18.585,14.834-28.702C129.664,191.409,134.73,185.447,141.309,185.447 M141.309,183.943
				c-5.561,0-10.095,3.797-12.803,6.066c-0.777,0.649-1.447,1.211-1.886,1.475l-0.061,0.037l-0.058,0.043
				c-13.944,10.303-14.934,23.2-15.41,29.398l-0.03,0.396c-0.169,2.186,0.097,5.201,0.378,8.394
				c0.477,5.402,1.069,12.122-0.556,15.539c-0.723,1.328-1.402,2.447-2.121,3.631c-2.286,3.763-4.645,7.647-8.523,18.467
				c-6.294-4.26-6.991-8.402-7.378-10.703c-0.029-0.172-0.056-0.334-0.083-0.486c0.062-0.266,0.894-0.938,1.392-1.34
				c1.615-1.305,4.055-3.274,3.5-6.85c-0.11-0.927-1.787-13.509-11.705-15.454c-0.904-0.177-1.789-0.267-2.631-0.267
				c-4.268,0-7.036,2.324-8.556,4.544c-1.298-3.206-4.89-10.008-14.161-18.436l-0.049-0.045l-0.053-0.04
				c-9.158-6.953-16.442-10.479-21.651-10.479c-4.505,0-5.895,2.61-6.039,2.907l-0.279,0.579l0.226,0.604
				c0.031,0.082,3.109,8.323,5.093,17.512c2.199,10.186,11.025,20.211,18.797,25.629l0.166,0.115l0.19,0.068
				c5.021,1.785,29.512,13.639,37.941,17.738c-6.372,2.902-21.517,9.662-26.869,10.819c-2.376,0.513-4.692,0.523-7.144,0.533
				c-4.574,0.021-9.304,0.041-14.834,3.286c-6.875,2.875-19.047,16.126-19.921,17.084c-0.392,0.385-2.564,2.666-2.506,5.863
				c0.042,2.312,1.204,4.475,3.454,6.428c2.894,2.79,10.705,3.008,13.039,3.008c14.253,0,21.417-5.236,23.396-6.974
				c3.916-2.603,6.606-8.557,9.208-14.316c2.195-4.86,4.466-9.885,7.06-11.67c3.899-2.681,10.778-5.407,14.983-6.945
				c-0.74,1.869-1.245,4.18-0.494,6.219c0.478,1.296,1.679,3.003,4.688,3.776l0.189,0.049l0.195-0.002
				c0.862-0.006,1.456-0.479,1.874-1.229c0.873,5.205,1.404,9.691,1.153,11.15c-0.197,0.058-0.432,0.112-0.675,0.17
				c-3.197,0.755-6.726,2.275-8.139,10.819l-0.028,0.171l0.011,0.172c0.241,3.695,3.912,13.9,17.813,16.77
				c0.11,2.046,0.203,3.996,0.29,5.817c0.234,4.901,0.419,8.772,0.753,11.368c1.018,7.913,12.71,23.585,13.208,24.248l0.03,0.041
				l0.033,0.037c0.194,0.227,1.962,2.207,4.304,2.207c1.27,0,3.076-0.585,4.477-3.371l0.047-0.094l0.033-0.099
				c4.619-13.594,5.012-26.268,1.204-38.746c-3.386-11.095-9.742-21.084-15.888-30.743c-3.857-6.062-7.824-12.298-11.134-18.887
				c8.155,4.271,21.649,11.929,23.664,15.368c0.436,1.942,0.567,3.927,0.706,6.024c0.169,2.57,0.345,5.227,1.08,8.181
				c0.444,3.041,4.476,8.989,9.652,14.219c3.743,3.784,11.047,10.13,17.908,10.13c1.774,0,3.407-0.43,4.852-1.276l0.11-0.064
				l0.098-0.082c2.969-2.499,4.54-5.449,4.668-8.771c0.126-3.238-1.123-8.473-7.786-15.023l-0.109-0.107
				c-0.714-0.706-1.67-1.08-2.683-1.479c-2.032-0.797-4.56-1.788-6.489-5.919l-0.026-0.058l-0.031-0.054
				c-4.081-7.13-9.729-7.983-14.267-8.669c-1.187-0.18-2.316-0.351-3.356-0.615c-0.715-0.753-2.591-2.207-8.095-5.646
				c0.328,0.027,0.642,0.041,0.943,0.041c2.023,0,3.532-0.611,4.483-1.817c1.107-1.401,1.33-3.402,0.683-6.116l-0.077-0.322
				l-0.205-0.261c-2.247-2.851-5.369-3.957-8.889-4.454c1.284,0.041,2.765,0.078,4.422,0.078c14.126,0,26.494-2.952,36.758-8.774
				l0.174-0.098l0.142-0.141c1.953-1.934,4.157-3.643,6.101-5.15c2.959-2.295,5.515-4.276,6.615-6.515
				c0.528-1.072,2.028-2.615,3.479-4.108c2.92-3.004,5.679-5.841,4.997-8.588l-0.088-0.354l-0.24-0.274
				c-2.651-3.028-7.635-4.766-13.675-4.766c-5.486,0.001-10.952,1.424-15.048,3.91c-0.516,0.108-1.186,0.222-1.944,0.35
				c-3.796,0.642-10.149,1.716-16.228,5.189c-7.162,4.093-13.731,10.45-18.079,14.657c-1.432,1.385-2.572,2.489-3.302,3.085
				c-1.701,1-7.506,3.434-11.901,5.221c3.011-5.292,8.774-14.814,13.117-18.318c1.762-1.422,3.625-2.714,5.597-4.081
				c5.171-3.586,10.518-7.293,14.851-13.883c4.803-6.246,6.725-15.933,6.497-22.776l-0.004-0.135l-0.028-0.132
				c-0.674-3.122,0.245-7.355,1.056-11.091c1.031-4.746,1.845-8.496-0.323-10.307l-0.084-0.07l-0.095-0.058
				C146.087,184.65,143.713,183.943,141.309,183.943L141.309,183.943z"/>
		</g>
		<path fill="#FFFFFF" d="M102.659,272.208c0,0,9.02-17.961,15.384-28.523c4.604-8.523,32.151-37.635,32.151-37.635
			s51.935-63.63,63-81.895c5.861-9.026,20.451-18.728,34.522-52.724c15.85,4.869,29.925,0.194,31.732-0.038
			c1.606-1.57,0.312-2.356-0.344-2.299c-0.658,0.06-4.039,2.603-7.247,2.375c-10.566-2.535-22.759-2.321-22.759-2.321
			s7.508-4.294,9.375-3.869c3.266,0.883,3.604,2.361,4.948,2.711c1.345,0.346,2.715,0.337,3.346,0.36s1.283-0.857,0.76-1.211
			c-0.524-0.351-0.8-0.898-3.626-1.456c1.917-0.286,2.352-0.783,3.118-0.896c0.767-0.113,0.952-1.239,0.265-1.372
			c-0.687-0.131-2.333-0.671-2.828-0.831c-0.742-0.517,2.151-2.123,2.368-2.784c0.214-0.659-1.215-1.305-1.871-0.974
			c-0.655,0.332-4.25,3.809-6.821,4.701c-4.158,1.014-10.519,4.863-10.519,4.863s1.364-13.682,4.596-22.745
			c1.455-3.901,4.784-6.006,6.792-9.36c2.292-1.439,3.585-4.845,3.585-4.845s-0.308-1.013-0.719-1.147
			c-2.125-2.701-3.779,0.407-3.393,0.898c-0.132,0.687-0.76,1.212-0.76,1.212s-1.367,0.282-2.575,0.068
			c1.261-4.145,2.907-4.155,3.254-5.499c0.348-1.345-0.506-1.806-0.506-1.806s2.834-1.05,3.315-1.592
			c0.147-1.471-1.631-0.776-1.631-0.776s0.067-2.256-1.716-2.748c-1.783-0.49-1.95,0.761-1.95,0.761s-1.839-0.51-2.281,0.473
			c-0.492,1.692,1.369,2.511,1.369,2.511s-3.868,3.935-2.078,6.555c-2.898,2.457-0.807,5.264-0.807,5.264l-1.528,8.04
			c0,0-2.195-4.727-2.861-6.312c-0.668-1.586,0.392-2.605,0.633-3.621c2.091-3.054-0.952-3.227-0.952-3.227s0.89-2.445-1.389-3.005
			c-2.277-0.562-2.228,2.917-2.228,2.917s-2.548-0.011-2.948,1.773s2.259,2.013,2.259,2.013s-0.118,2.877,1.447,3.389
			c1.565,0.509,1.803-0.779,2.274,0.013c0.47,0.791,3.004,6.996,2.929,8.063c-0.076,1.07-5.129,20.934-5.26,26.176
			c-6.467,20.19-30.028,48.447-31.268,47.221c-2.551-8.943-12.627-25.268-13.673-30.166c-1.045-4.898,3.968-13.835-0.654-16.712
			c-0.851-0.186-2.622,5.799-2.478,6.757c-1.947-0.179-1.943,0.369-1.943,0.369s0.422,1.778-0.182,1.674
			c-0.603-0.108-2.363-1.139-2.363-1.139s-1.491,2.614,2.67,6.342c3.167,2.583,9.414,15.287,9.414,15.287
			s-6.091-9.827-10.889-14.675c-4.944-7.385-3.645-12.855-3.645-12.855s-1.354-3.297-5.641,0.529
			c-3.933,13.909,1.611,17.783,4.24,20.525c2.629,2.742,6.999,5.746,10.163,12.431c7.86,9.431,11.736,9.844,12.471,13.185
			c-19.903,33.062-35.368,48.519-63.152,84.033c-19.163,20.179-30.962,36.213-31.932,37.524
			c-2.608,3.524-15.197,29.629-15.197,29.629L102.659,272.208z"/>
		<g>
			<path fill="#118949" d="M103.317,272.424c0,0,9.02-17.96,15.383-28.525c4.605-8.521,32.152-37.634,32.152-37.634
				s51.936-63.63,62.999-81.895c5.862-9.026,20.452-18.729,34.522-52.723c15.851,4.869,29.926,0.193,31.732-0.038
				c1.607-1.571,0.313-2.357-0.343-2.298c-0.658,0.058-4.04,2.602-7.246,2.374c-10.567-2.536-22.761-2.32-22.761-2.32
				s7.509-4.296,9.376-3.869c3.266,0.883,3.604,2.36,4.949,2.708c1.344,0.349,2.715,0.339,3.345,0.362
				c0.631,0.025,1.283-0.856,0.759-1.21c-0.522-0.354-0.8-0.898-3.625-1.457c1.917-0.287,2.351-0.783,3.118-0.897
				c0.767-0.114,0.951-1.238,0.266-1.371c-0.686-0.132-2.334-0.672-2.827-0.833c-0.744-0.516,2.15-2.123,2.367-2.783
				c0.214-0.658-1.215-1.308-1.871-0.974c-0.655,0.333-4.251,3.81-6.82,4.701c-4.159,1.014-10.521,4.862-10.521,4.862
				s1.366-13.682,4.596-22.745c1.456-3.9,4.786-6.004,6.793-9.362c2.292-1.438,3.585-4.843,3.585-4.843s-0.308-1.013-0.72-1.148
				c-2.126-2.7-3.779,0.407-3.393,0.899c-0.131,0.684-0.759,1.208-0.759,1.208s-1.369,0.285-2.576,0.073
				c1.262-4.147,2.905-4.157,3.253-5.503c0.348-1.343-0.504-1.805-0.504-1.805s2.833-1.049,3.314-1.591
				c0.147-1.471-1.631-0.776-1.631-0.776s0.068-2.255-1.716-2.747c-1.785-0.491-1.95,0.762-1.95,0.762s-1.84-0.509-2.281,0.47
				c-0.491,1.693,1.369,2.512,1.369,2.512s-3.868,3.935-2.079,6.553c-2.898,2.458-0.806,5.267-0.806,5.267l-1.529,8.04
				c0,0-2.195-4.728-2.863-6.312c-0.667-1.586,0.395-2.606,0.636-3.621c2.09-3.056-0.953-3.229-0.953-3.229s0.89-2.446-1.389-3.005
				c-2.279-0.56-2.229,2.92-2.229,2.92s-2.548-0.012-2.948,1.772c-0.4,1.783,2.26,2.013,2.26,2.013s-0.119,2.878,1.446,3.388
				c1.566,0.511,1.804-0.777,2.274,0.015c0.471,0.792,3.003,6.996,2.928,8.065c-0.073,1.068-5.127,20.931-5.259,26.174
				c-6.468,20.192-30.027,48.447-31.268,47.221c-2.55-8.944-12.628-25.268-13.674-30.166c-1.044-4.899,3.968-13.835-0.654-16.711
				c-0.85-0.187-2.621,5.796-2.478,6.755c-1.947-0.176-1.943,0.371-1.943,0.371s0.422,1.778-0.181,1.671
				c-0.604-0.105-2.363-1.136-2.363-1.136s-1.492,2.614,2.67,6.341c3.168,2.582,9.414,15.286,9.414,15.286s-6.09-9.828-10.89-14.673
				c-4.943-7.385-3.644-12.856-3.644-12.856s-1.354-3.298-5.642,0.53c-3.931,13.907,1.612,17.782,4.241,20.523
				c2.629,2.742,6.998,5.748,10.164,12.431c7.858,9.432,11.735,9.845,12.469,13.185c-19.905,33.064-35.367,48.521-63.15,84.032
				c-19.164,20.179-30.964,36.216-31.934,37.524c-2.607,3.525-15.816,29.476-15.816,29.476L103.317,272.424z"/>
			<path fill="#FFFFFF" d="M257.763,20.153c0.211,0,0.461,0.034,0.753,0.114c1.784,0.492,1.716,2.747,1.716,2.747
				s0.419-0.164,0.834-0.164c0.439,0,0.873,0.184,0.797,0.94c-0.481,0.542-3.314,1.591-3.314,1.591s0.852,0.462,0.504,1.805
				c-0.348,1.346-1.991,1.355-3.253,5.503c0.327,0.058,0.665,0.078,0.985,0.078c0.863,0,1.591-0.151,1.591-0.151
				s0.627-0.524,0.759-1.208c-0.272-0.347,0.466-1.989,1.669-1.989c0.505,0,1.094,0.291,1.723,1.09
				c0.412,0.135,0.72,1.148,0.72,1.148s-1.293,3.404-3.585,4.843c-2.007,3.357-5.337,5.462-6.793,9.362
				c-3.23,9.062-4.596,22.745-4.596,22.745s6.361-3.848,10.521-4.862c2.568-0.892,6.165-4.369,6.82-4.701
				c0.123-0.062,0.272-0.09,0.433-0.09c0.7,0,1.612,0.53,1.438,1.064c-0.216,0.66-3.11,2.267-2.367,2.783
				c0.493,0.161,2.141,0.701,2.827,0.833c0.685,0.133,0.501,1.257-0.266,1.371c-0.767,0.114-1.201,0.61-3.118,0.897
				c2.825,0.558,3.104,1.102,3.625,1.457c0.517,0.349-0.11,1.21-0.733,1.21c-0.009,0-0.018,0-0.026,0
				c-0.63-0.023-2.001-0.014-3.345-0.362c-1.345-0.348-1.683-1.825-4.949-2.708c-0.088-0.02-0.189-0.03-0.302-0.03
				c-2.26,0-9.074,3.898-9.074,3.898s0.256-0.004,0.728-0.004c2.777,0,13,0.157,22.033,2.325c0.138,0.01,0.275,0.015,0.414,0.015
				c3.077,0,6.203-2.333,6.832-2.389c0.022-0.002,0.046-0.003,0.071-0.003c0.672,0,1.823,0.785,0.272,2.301
				c-1.193,0.153-7.738,2.244-16.611,2.244c-4.562,0-9.74-0.553-15.122-2.206c-14.07,33.994-28.66,43.697-34.522,52.723
				c-11.063,18.265-62.999,81.895-62.999,81.895s-27.547,29.112-32.152,37.634c-6.364,10.565-15.383,28.525-15.383,28.525
				l-2.854-0.568c0,0,13.208-25.95,15.816-29.476c0.97-1.309,12.77-17.346,31.934-37.524c27.783-35.512,43.246-50.968,63.15-84.032
				c-0.734-3.339-4.611-3.753-12.469-13.185c-3.166-6.684-7.534-9.689-10.164-12.431c-2.628-2.741-8.172-6.617-4.241-20.523
				c1.575-1.406,2.754-1.85,3.616-1.85c1.484,0,2.026,1.32,2.026,1.32s-1.299,5.471,3.644,12.856
				c4.799,4.846,10.89,14.673,10.89,14.673s-6.245-12.704-9.414-15.286c-4.162-3.728-2.67-6.341-2.67-6.341s1.76,1.031,2.363,1.136
				c0.018,0.003,0.034,0.005,0.05,0.005c0.528,0,0.131-1.676,0.131-1.676s-0.003-0.405,1.24-0.405c0.2,0,0.433,0.01,0.703,0.035
				c-0.141-0.944,1.574-6.759,2.438-6.759c0.014,0,0.027,0.001,0.04,0.004c4.622,2.876-0.391,11.812,0.654,16.711
				c1.046,4.897,11.124,21.221,13.674,30.166c0.026,0.026,0.062,0.039,0.108,0.039c2.12,0,24.829-27.495,31.16-47.26
				c0.132-5.243,5.186-25.106,5.259-26.174c0.076-1.069-2.457-7.274-2.928-8.065c-0.117-0.196-0.219-0.265-0.33-0.265
				c-0.26,0-0.572,0.374-1.235,0.374c-0.201,0-0.435-0.034-0.708-0.124c-1.565-0.51-1.446-3.388-1.446-3.388s-2.66-0.23-2.26-2.013
				c0.395-1.76,2.882-1.772,2.946-1.772c0.001,0,0.001,0,0.001,0s-0.042-2.981,1.758-2.981c0.145,0,0.302,0.02,0.472,0.061
				c2.278,0.56,1.389,3.005,1.389,3.005s3.042,0.173,0.953,3.229c-0.241,1.015-1.303,2.035-0.636,3.621
				c0.668,1.584,2.863,6.312,2.863,6.312l1.529-8.04c0,0-2.092-2.808,0.806-5.267c-1.789-2.618,2.079-6.553,2.079-6.553
				s-1.86-0.819-1.369-2.512c0.216-0.48,0.769-0.602,1.275-0.602c0.527,0,1.005,0.132,1.005,0.132S256.681,20.153,257.763,20.153
				 M257.763,19.401L257.763,19.401c-0.839,0-1.351,0.371-1.638,0.781c-0.17-0.021-0.363-0.037-0.564-0.037
				c-1.296,0-1.785,0.655-1.96,1.045l-0.022,0.049l-0.015,0.05c-0.379,1.304,0.249,2.284,0.95,2.878
				c-1.021,1.245-2.874,3.956-1.878,6.247c-1.983,2.042-1.405,4.368-0.663,5.58l-1.033,5.432c-0.672-1.464-1.506-3.295-1.87-4.158
				c-0.326-0.776-0.111-1.306,0.267-2.108c0.137-0.29,0.278-0.588,0.37-0.906c0.791-1.197,0.99-2.213,0.592-3.022
				c-0.302-0.614-0.862-0.932-1.343-1.097c0.063-0.523,0.045-1.212-0.293-1.846c-0.244-0.457-0.756-1.055-1.812-1.314
				c-0.223-0.055-0.442-0.083-0.65-0.083c-0.583,0-1.107,0.218-1.514,0.63c-0.655,0.664-0.88,1.707-0.957,2.405
				c-1.163,0.171-2.627,0.78-2.968,2.305c-0.141,0.626-0.029,1.211,0.323,1.691c0.487,0.665,1.331,0.977,1.93,1.12
				c0.065,1.049,0.4,2.963,1.954,3.469c0.327,0.107,0.644,0.161,0.942,0.161c0.455,0,0.799-0.124,1.045-0.238
				c0.672,1.367,2.719,6.55,2.698,7.393c-0.028,0.294-0.519,2.405-1.039,4.639c-1.528,6.575-4.077,17.538-4.218,21.455
				c-5.872,18.192-25.958,43.241-30.035,46.353c-1.539-4.854-4.93-11.479-7.94-17.359c-2.584-5.047-5.024-9.814-5.483-11.965
				c-0.369-1.73,0.119-4.183,0.59-6.555c0.839-4.224,1.707-8.592-1.582-10.638l-0.11-0.068l-0.126-0.027
				c-0.066-0.015-0.133-0.022-0.202-0.022c-0.323,0-0.624,0.159-0.894,0.472c-0.811,0.939-1.952,4.43-2.235,6.252
				c-0.004,0-0.008,0-0.012,0c-0.828,0-1.368,0.155-1.698,0.488c-0.189,0.19-0.295,0.436-0.294,0.675l0.001,0.084l0.02,0.083
				c0.04,0.169,0.072,0.356,0.094,0.526c-0.443-0.208-1.033-0.523-1.527-0.813l-0.656-0.384l-0.377,0.66
				c-0.027,0.047-0.271,0.493-0.339,1.241c-1.293-3.967-0.734-6.563-0.726-6.6l0.054-0.233l-0.09-0.224
				c-0.03-0.073-0.756-1.787-2.722-1.787c-1.214,0-2.599,0.687-4.116,2.041l-0.164,0.146l-0.059,0.21
				c-3.728,13.185,0.941,17.799,3.731,20.555c0.245,0.242,0.478,0.472,0.69,0.693c0.593,0.619,1.27,1.248,1.987,1.915
				c2.509,2.333,5.632,5.235,8.04,10.318l0.041,0.086l0.062,0.073c4.031,4.839,7.078,7.372,9.093,9.049
				c1.806,1.502,2.774,2.308,3.146,3.537c-14.056,23.309-26.184,38.187-41.522,57.003c-6.266,7.688-13.367,16.399-21.392,26.655
				c-17.514,18.444-28.854,33.361-31.913,37.495l-0.054,0.073c-2.615,3.535-15.341,28.52-15.882,29.582l-0.45,0.884l0.974,0.194
				l2.854,0.568l0.562,0.112l0.257-0.512c0.09-0.18,9.08-18.057,15.355-28.476c4.523-8.368,31.779-37.215,32.054-37.505l0.019-0.02
				l0.018-0.021c0.52-0.637,52.096-63.881,63.06-81.98c1.529-2.354,3.759-4.856,6.341-7.755
				c7.063-7.928,17.708-19.875,27.972-44.442c4.647,1.355,9.584,2.043,14.688,2.043c7.189,0,12.771-1.333,15.453-1.974
				c0.589-0.141,1.055-0.251,1.253-0.277l0.25-0.032l0.18-0.176c1.126-1.1,1.102-1.971,0.883-2.506
				c-0.303-0.745-1.084-1.084-1.681-1.084c-0.047,0-0.093,0.002-0.138,0.006c-0.321,0.028-0.665,0.205-1.413,0.602
				c-1.257,0.667-3.361,1.783-5.352,1.783c-0.101,0-0.201-0.002-0.301-0.008c-7.438-1.776-15.637-2.207-19.94-2.304
				c2.38-1.219,5.065-2.417,6.141-2.417c0.075,0,0.116,0.007,0.134,0.011c1.794,0.485,2.615,1.171,3.276,1.722
				c0.494,0.413,0.96,0.802,1.653,0.981c1.254,0.325,2.495,0.358,3.236,0.378l0.269,0.008h0.014l0.041,0
				c0.697,0,1.407-0.537,1.616-1.223c0.165-0.537-0.013-1.06-0.463-1.363c-0.065-0.044-0.128-0.095-0.195-0.148
				c-0.249-0.199-0.546-0.436-1.122-0.687c0.186-0.074,0.339-0.127,0.5-0.151c0.854-0.127,1.315-0.866,1.33-1.531
				c0.015-0.668-0.4-1.199-1.033-1.322c-0.338-0.065-1.008-0.256-1.994-0.569c0.232-0.21,0.523-0.446,0.734-0.617
				c0.776-0.628,1.223-1.006,1.371-1.457c0.125-0.381,0.052-0.783-0.202-1.133c-0.385-0.531-1.206-0.917-1.95-0.917
				c-0.289,0-0.549,0.058-0.774,0.172c-0.254,0.129-0.602,0.412-1.362,1.041c-1.365,1.127-3.643,3.009-5.331,3.609
				c-3.108,0.767-7.294,2.996-9.391,4.182c0.453-3.769,1.844-13.95,4.389-21.09c0.802-2.148,2.214-3.719,3.709-5.383
				c1.023-1.138,2.079-2.313,2.93-3.695c2.379-1.6,3.679-4.967,3.734-5.113l0.092-0.24l-0.075-0.246
				c-0.137-0.45-0.431-1.189-0.952-1.522c-0.69-0.828-1.433-1.249-2.21-1.249c-1.078,0-1.856,0.811-2.226,1.57
				c-0.213,0.438-0.291,0.849-0.23,1.187c-0.078,0.19-0.218,0.37-0.33,0.491c-0.25,0.04-0.7,0.098-1.198,0.1
				c0.666-1.775,1.388-2.518,1.936-3.08c0.435-0.447,0.845-0.869,1.024-1.561c0.175-0.677,0.12-1.224-0.04-1.647
				c1.007-0.407,2.283-0.984,2.685-1.438l0.162-0.182l0.024-0.243c0.054-0.537-0.066-0.972-0.358-1.294
				c-0.195-0.215-0.559-0.472-1.187-0.472c-0.059,0-0.116,0.002-0.174,0.006c-0.177-0.891-0.691-2.153-2.176-2.563
				C258.375,19.449,258.055,19.401,257.763,19.401L257.763,19.401z M196.231,88.587c-0.463-0.542-0.923-1.059-1.376-1.541
				C195.268,87.405,195.734,87.937,196.231,88.587L196.231,88.587z"/>
		</g>
		<polygon fill="#118949" points="97.783,271.247 100.531,269.368 104.813,271.708 103.12,274.563 98.507,272.654 		"/>
	</g>
</g>
</svg>
