<?xml version="1.0" encoding="utf-8"?>
<!-- Generator: Adobe Illustrator 16.0.4, SVG Export Plug-In . SVG Version: 6.00 Build 0)  -->
<!DOCTYPE svg PUBLIC "-//W3C//DTD SVG 1.1//EN" "http://www.w3.org/Graphics/SVG/1.1/DTD/svg11.dtd">
<svg version="1.1" id="Layer_1" xmlns="http://www.w3.org/2000/svg" xmlns:xlink="http://www.w3.org/1999/xlink" x="0px" y="0px"
	 width="179px" height="146px" viewBox="-50 9.5 179 146" enable-background="new -50 9.5 179 146" xml:space="preserve">
<g>
	<g>
		<g>
			<path d="M-14.168,149.219c-2.071-3.588-0.842-8.174,2.745-10.245c38.729-22.36,42.238-40.302,45.953-59.295
				c3.894-19.906,8.306-42.467,50.565-66.866c3.587-2.071,8.174-0.842,10.245,2.745c2.07,3.587,0.842,8.174-2.745,10.245
				c-36.349,20.985-39.59,37.561-43.344,56.753c-3.999,20.452-8.533,43.634-53.174,69.407
				C-7.511,154.035-12.097,152.807-14.168,149.219z"/>
			<path d="M106.673,72.522L80.34,26.912c-0.69-1.196-0.281-2.725,0.915-3.415s2.725-0.281,3.415,0.915l26.333,45.61
				c0.69,1.196,0.281,2.725-0.915,3.415C108.893,74.128,107.363,73.718,106.673,72.522z"/>
			<path d="M93.261,77.957L69.594,36.965c-0.69-1.196-0.281-2.725,0.915-3.415c1.195-0.69,2.725-0.281,3.415,0.915l23.667,40.992
				c0.69,1.196,0.28,2.725-0.915,3.415C95.479,79.562,93.951,79.153,93.261,77.957z"/>
			<path d="M77.104,79.972L56.271,43.888c-0.69-1.196-0.281-2.725,0.915-3.415c1.195-0.69,2.725-0.281,3.415,0.915l20.833,36.084
				c0.69,1.196,0.281,2.725-0.915,3.416S77.794,81.168,77.104,79.972z"/>
			<path d="M61.723,80L48.889,57.772c-0.69-1.196-0.28-2.725,0.916-3.416c1.195-0.69,2.725-0.281,3.415,0.916L66.053,77.5
				c0.69,1.196,0.28,2.725-0.915,3.415C63.941,81.605,62.413,81.195,61.723,80z"/>
		</g>
	</g>
	<defs>
		<filter id="Adobe_OpacityMaskFilter" filterUnits="userSpaceOnUse" x="-46.508" y="63.19" width="172.52" height="73.806">
			<feColorMatrix  type="matrix" values="1 0 0 0 0  0 1 0 0 0  0 0 1 0 0  0 0 0 1 0"/>
		</filter>
	</defs>
	<mask maskUnits="userSpaceOnUse" x="-46.508" y="63.19" width="172.52" height="73.806" id="SVGID_1_">
		<g filter="url(#Adobe_OpacityMaskFilter)">
			
				<rect x="-15.019" y="0.985" transform="matrix(-0.5 -0.866 0.866 -0.5 -14.5145 168.2577)" fill="#FFFFFF" width="112.667" height="174.667"/>
			<g>
				<path fill="#FDFDFE" d="M-5.057,137.582L-31.39,91.973c-0.69-1.196-0.281-2.725,0.915-3.415c1.196-0.69,2.725-0.281,3.415,0.915
					l26.333,45.609c0.69,1.196,0.281,2.725-0.915,3.415C-2.838,139.188-4.367,138.778-5.057,137.582z"/>
				<path fill="#FDFDFE" d="M6.356,128.684l-23.667-40.991c-0.69-1.196-0.281-2.725,0.915-3.415s2.725-0.281,3.415,0.915
					l23.667,40.991c0.69,1.196,0.281,2.725-0.915,3.415S7.046,129.88,6.356,128.684z"/>
				<path fill="#FDFDFE" d="M16.18,115.7L-4.653,79.615c-0.69-1.196-0.281-2.725,0.915-3.415s2.725-0.281,3.415,0.915L20.51,113.2
					c0.69,1.196,0.281,2.725-0.915,3.415S16.871,116.896,16.18,115.7z"/>
				<path fill="#FDFDFE" d="M23.894,102.393L11.061,80.165c-0.69-1.196-0.281-2.725,0.915-3.415c1.196-0.69,2.725-0.281,3.415,0.915
					l12.833,22.228c0.69,1.195,0.281,2.725-0.915,3.415C26.113,103.998,24.584,103.588,23.894,102.393z"/>
			</g>
			<g>
				<path d="M-6.356,138.332l-26.333-45.609c-1.104-1.913-0.449-4.36,1.464-5.465c1.913-1.104,4.36-0.448,5.464,1.465l26.333,45.609
					c1.104,1.913,0.449,4.36-1.464,5.465C-2.805,140.901-5.251,140.245-6.356,138.332z"/>
				<path d="M5.057,129.434L-18.61,88.442c-1.104-1.913-0.449-4.359,1.464-5.464c1.913-1.105,4.359-0.449,5.464,1.464l23.667,40.991
					c1.104,1.913,0.449,4.359-1.464,5.465C8.608,132.002,6.161,131.347,5.057,129.434z"/>
				<path d="M14.881,116.45L-4.348,83.145c-1.104-1.913-0.449-4.359,1.464-5.464s4.36-0.449,5.464,1.464L21.81,112.45
					c1.104,1.913,0.449,4.359-1.464,5.464S15.986,118.363,14.881,116.45z"/>
				<path d="M22.595,103.143L9.762,80.915c-1.104-1.913-0.449-4.359,1.464-5.464c1.913-1.104,4.36-0.449,5.464,1.464l12.833,22.228
					c1.104,1.913,0.449,4.359-1.464,5.464C26.146,105.711,23.699,105.056,22.595,103.143z"/>
			</g>
			<g>
				<path fill="#FDFDFE" d="M-5.057,137.582L-31.39,91.973c-0.69-1.196-0.281-2.725,0.915-3.415c1.196-0.69,2.725-0.281,3.415,0.915
					l26.333,45.609c0.69,1.196,0.281,2.725-0.915,3.415C-2.838,139.188-4.367,138.778-5.057,137.582z"/>
				<path fill="#FDFDFE" d="M6.356,128.684l-23.667-40.991c-0.69-1.196-0.281-2.725,0.915-3.415s2.725-0.281,3.415,0.915
					l23.667,40.991c0.69,1.196,0.281,2.725-0.915,3.415S7.046,129.88,6.356,128.684z"/>
				<path fill="#FDFDFE" d="M16.18,115.7L-3.081,82.34c-0.69-1.196-0.281-2.725,0.916-3.415c1.196-0.69,2.725-0.281,3.415,0.915
					l19.26,33.36c0.69,1.196,0.281,2.725-0.915,3.415S16.871,116.896,16.18,115.7z"/>
				<path fill="#FDFDFE" d="M23.894,102.393L11.061,80.165c-0.69-1.196-0.281-2.725,0.915-3.415c1.196-0.69,2.725-0.281,3.415,0.915
					l12.833,22.228c0.69,1.195,0.281,2.725-0.915,3.415C26.113,103.998,24.584,103.588,23.894,102.393z"/>
			</g>
			<g>
				<g>
					<path d="M-16.433,151.296c-2.899-5.021-1.179-11.443,3.843-14.343c37.547-21.678,40.774-38.174,44.51-57.274
						c4.015-20.533,8.566-43.806,52.008-68.887c5.021-2.899,11.444-1.179,14.344,3.843s1.178,11.444-3.844,14.343
						C59.262,49.282,56.141,65.237,52.529,83.71c-4.124,21.08-8.796,44.974-54.619,71.43
						C-7.112,158.039-13.534,156.318-16.433,151.296z"/>
					<path d="M105.708,73.85L79.374,28.24c-1.104-1.913-0.448-4.36,1.465-5.464c1.912-1.104,4.359-0.449,5.464,1.464l26.333,45.61
						c1.104,1.913,0.449,4.36-1.464,5.464S106.812,75.763,105.708,73.85z"/>
					<path d="M92.295,79.285L68.628,38.292c-1.104-1.913-0.449-4.359,1.464-5.464s4.36-0.449,5.465,1.464l23.666,40.992
						c1.104,1.913,0.449,4.359-1.464,5.464S93.399,81.198,92.295,79.285z"/>
					<path d="M76.138,81.3L55.305,45.216c-1.104-1.913-0.449-4.36,1.464-5.464s4.359-0.449,5.464,1.464L83.066,77.3
						c1.104,1.913,0.448,4.36-1.465,5.464C79.689,83.868,77.242,83.213,76.138,81.3z"/>
					<path d="M60.757,81.327L47.924,59.1c-1.104-1.913-0.449-4.36,1.464-5.464s4.359-0.449,5.464,1.464l12.834,22.228
						c1.104,1.913,0.448,4.36-1.465,5.464C64.308,83.896,61.861,83.24,60.757,81.327z"/>
				</g>
			</g>
		</g>
	</mask>
	<g mask="url(#SVGID_1_)">
		<g>
			<path d="M-45.502,94.948c-2.071-3.588-0.842-8.174,2.745-10.245c42.26-24.399,64.004-16.939,83.189-10.357
				c18.307,6.279,35.599,12.211,74.329-10.149c3.587-2.071,8.174-0.841,10.245,2.745c2.07,3.587,0.842,8.174-2.745,10.245
				C77.619,102.96,55.276,95.295,35.565,88.534c-18.498-6.347-34.474-11.827-70.822,9.159
				C-38.844,99.765-43.43,98.536-45.502,94.948z"/>
			<path d="M-6.166,135.745l-26.333-45.609c-0.69-1.196-0.281-2.725,0.915-3.415c1.196-0.69,2.725-0.281,3.415,0.915l26.333,45.61
				c0.69,1.196,0.281,2.725-0.915,3.415S-5.476,136.941-6.166,135.745z"/>
			<path d="M5.247,126.847l-23.666-40.991c-0.69-1.195-0.281-2.725,0.915-3.415s2.725-0.281,3.415,0.915l23.667,40.992
				c0.69,1.196,0.281,2.725-0.915,3.415S5.937,128.043,5.247,126.847z"/>
			<path d="M15.07,113.862L-5.763,77.778c-0.69-1.196-0.281-2.725,0.915-3.415s2.725-0.281,3.415,0.915l20.833,36.084
				c0.69,1.196,0.281,2.725-0.915,3.415C17.29,115.468,15.761,115.059,15.07,113.862z"/>
			<path d="M22.785,100.557L9.952,78.329c-0.69-1.196-0.281-2.725,0.915-3.415c1.196-0.69,2.725-0.281,3.416,0.915l12.833,22.228
				c0.69,1.195,0.281,2.725-0.915,3.415S23.476,101.752,22.785,100.557z"/>
		</g>
	</g>
</g>
</svg>
