<?xml version="1.0" encoding="utf-8"?>
<!-- Generator: Adobe Illustrator 16.0.4, SVG Export Plug-In . SVG Version: 6.00 Build 0)  -->
<!DOCTYPE svg PUBLIC "-//W3C//DTD SVG 1.1//EN" "http://www.w3.org/Graphics/SVG/1.1/DTD/svg11.dtd">
<svg version="1.1" id="Layer_1" xmlns="http://www.w3.org/2000/svg" xmlns:xlink="http://www.w3.org/1999/xlink" x="0px" y="0px"
	 width="81px" height="164px" viewBox="0 0 81 164" enable-background="new 0 0 81 164" xml:space="preserve">
<g>
	<g>
		<g>
			<path d="M71.5,162.5c-4.142,0-7.5-3.358-7.5-7.5c0-44.721-13.783-56.73-28.375-69.444C20.333,72.231,3,57.13,3,8.333
				c0-4.142,3.358-7.5,7.5-7.5s7.5,3.358,7.5,7.5c0,41.971,12.734,53.066,27.479,65.913C61.191,87.936,79,103.453,79,155
				C79,159.142,75.642,162.5,71.5,162.5z"/>
			<path d="M65.5,19.5H12.833c-1.381,0-2.5-1.119-2.5-2.5s1.119-2.5,2.5-2.5H65.5c1.381,0,2.5,1.119,2.5,2.5S66.881,19.5,65.5,19.5z
				"/>
			<path d="M63.5,33.833H16.166c-1.381,0-2.5-1.119-2.5-2.5s1.119-2.5,2.5-2.5H63.5c1.381,0,2.5,1.119,2.5,2.5
				S64.881,33.833,63.5,33.833z"/>
			<path d="M57.167,48.833H15.5c-1.381,0-2.5-1.119-2.5-2.5s1.119-2.5,2.5-2.5h41.667c1.381,0,2.5,1.119,2.5,2.5
				S58.548,48.833,57.167,48.833z"/>
			<path d="M49.5,62.167H23.833c-1.381,0-2.5-1.119-2.5-2.5s1.119-2.5,2.5-2.5H49.5c1.381,0,2.5,1.119,2.5,2.5
				S50.881,62.167,49.5,62.167z"/>
		</g>
	</g>
	<defs>
		<filter id="Adobe_OpacityMaskFilter" filterUnits="userSpaceOnUse" x="1.333" y="0.833" width="76" height="161.667">
			<feColorMatrix  type="matrix" values="1 0 0 0 0  0 1 0 0 0  0 0 1 0 0  0 0 0 1 0"/>
		</filter>
	</defs>
	<mask maskUnits="userSpaceOnUse" x="1.333" y="0.833" width="76" height="161.667" id="SVGID_1_">
		<g filter="url(#Adobe_OpacityMaskFilter)">
			<rect x="-9.833" y="-3.333" fill="#FFFFFF" width="112.667" height="174.667"/>
			<g>
				<path fill="#FDFDFE" d="M65.979,148.791H13.312c-1.381,0-2.5-1.119-2.5-2.5s1.119-2.5,2.5-2.5h52.667c1.381,0,2.5,1.119,2.5,2.5
					S67.359,148.791,65.979,148.791z"/>
				<path fill="#FDFDFE" d="M63.979,134.458H16.645c-1.381,0-2.5-1.119-2.5-2.5s1.119-2.5,2.5-2.5h47.334c1.381,0,2.5,1.119,2.5,2.5
					S65.36,134.458,63.979,134.458z"/>
				<path fill="#FDFDFE" d="M57.646,119.458H15.979c-1.381,0-2.5-1.119-2.5-2.5s1.119-2.5,2.5-2.5h41.667c1.381,0,2.5,1.119,2.5,2.5
					S59.027,119.458,57.646,119.458z"/>
				<path fill="#FDFDFE" d="M49.979,106.124H24.312c-1.381,0-2.5-1.119-2.5-2.5s1.119-2.5,2.5-2.5h25.667c1.381,0,2.5,1.119,2.5,2.5
					S51.36,106.124,49.979,106.124z"/>
			</g>
			<g>
				<path d="M65.979,150.291H13.312c-2.209,0-4-1.791-4-4s1.791-4,4-4h52.667c2.209,0,4,1.791,4,4S68.188,150.291,65.979,150.291z"
					/>
				<path d="M63.979,135.958H16.645c-2.209,0-4-1.791-4-4s1.791-4,4-4h47.334c2.209,0,4,1.791,4,4S66.188,135.958,63.979,135.958z"
					/>
				<path d="M57.646,120.958H19.188c-2.209,0-4-1.791-4-4s1.791-4,4-4h38.458c2.209,0,4,1.791,4,4S59.855,120.958,57.646,120.958z"
					/>
				<path d="M49.979,107.624H24.312c-2.209,0-4-1.791-4-4s1.791-4,4-4h25.667c2.209,0,4,1.791,4,4S52.188,107.624,49.979,107.624z"
					/>
			</g>
			<g>
				<path fill="#FDFDFE" d="M65.979,148.791H13.312c-1.381,0-2.5-1.119-2.5-2.5s1.119-2.5,2.5-2.5h52.667c1.381,0,2.5,1.119,2.5,2.5
					S67.359,148.791,65.979,148.791z"/>
				<path fill="#FDFDFE" d="M63.979,134.458H16.645c-1.381,0-2.5-1.119-2.5-2.5s1.119-2.5,2.5-2.5h47.334c1.381,0,2.5,1.119,2.5,2.5
					S65.36,134.458,63.979,134.458z"/>
				<path fill="#FDFDFE" d="M57.646,119.458H19.125c-1.381,0-2.5-1.119-2.5-2.5s1.119-2.5,2.5-2.5h38.521c1.381,0,2.5,1.119,2.5,2.5
					S59.027,119.458,57.646,119.458z"/>
				<path fill="#FDFDFE" d="M49.979,106.124H24.312c-1.381,0-2.5-1.119-2.5-2.5s1.119-2.5,2.5-2.5h25.667c1.381,0,2.5,1.119,2.5,2.5
					S51.36,106.124,49.979,106.124z"/>
			</g>
			<g>
				<g>
					<path d="M72.167,165.5c-5.799,0-10.5-4.701-10.5-10.5c0-43.356-12.672-54.398-27.346-67.183
						C18.546,74.073,0.667,58.495,0.667,8.333c0-5.799,4.701-10.5,10.5-10.5s10.5,4.701,10.5,10.5
						c0,40.606,12.257,51.286,26.449,63.651C64.311,86.095,82.667,102.088,82.667,155C82.667,160.799,77.966,165.5,72.167,165.5z"/>
					<path d="M66.167,21H13.5c-2.209,0-4-1.791-4-4s1.791-4,4-4h52.667c2.209,0,4,1.791,4,4S68.376,21,66.167,21z"/>
					<path d="M64.167,35.333H16.833c-2.209,0-4-1.791-4-4s1.791-4,4-4h47.334c2.209,0,4,1.791,4,4S66.376,35.333,64.167,35.333z"/>
					<path d="M57.834,50.333H16.167c-2.209,0-4-1.791-4-4s1.791-4,4-4h41.667c2.209,0,4,1.791,4,4S60.043,50.333,57.834,50.333z"/>
					<path d="M50.167,63.667H24.5c-2.209,0-4-1.791-4-4s1.791-4,4-4h25.667c2.209,0,4,1.791,4,4S52.376,63.667,50.167,63.667z"/>
				</g>
			</g>
		</g>
	</mask>
	<g mask="url(#SVGID_1_)">
		<g>
			<path d="M8.833,162.5c-4.142,0-7.5-3.358-7.5-7.5c0-48.797,17.333-63.898,32.625-77.222C48.55,65.063,62.333,53.054,62.333,8.333
				c0-4.142,3.358-7.5,7.5-7.5s7.5,3.358,7.5,7.5c0,51.547-17.809,67.064-33.521,80.754C29.067,101.934,16.333,113.029,16.333,155
				C16.333,159.142,12.976,162.5,8.833,162.5z"/>
			<path d="M63.833,148.833H11.167c-1.381,0-2.5-1.119-2.5-2.5s1.119-2.5,2.5-2.5h52.667c1.381,0,2.5,1.119,2.5,2.5
				S65.214,148.833,63.833,148.833z"/>
			<path d="M61.833,134.5H14.5c-1.381,0-2.5-1.119-2.5-2.5s1.119-2.5,2.5-2.5h47.334c1.381,0,2.5,1.119,2.5,2.5
				S63.214,134.5,61.833,134.5z"/>
			<path d="M55.5,119.5H13.833c-1.381,0-2.5-1.119-2.5-2.5s1.119-2.5,2.5-2.5H55.5c1.381,0,2.5,1.119,2.5,2.5
				S56.881,119.5,55.5,119.5z"/>
			<path d="M47.834,106.166H22.167c-1.381,0-2.5-1.119-2.5-2.5s1.119-2.5,2.5-2.5h25.667c1.381,0,2.5,1.119,2.5,2.5
				S49.215,106.166,47.834,106.166z"/>
		</g>
	</g>
</g>
<g>
</g>
<g>
</g>
<g>
</g>
<g>
</g>
<g>
</g>
<g>
</g>
</svg>
